<mxfile host="app.diagrams.net" modified="2024-06-01T20:05:15.553Z" agent="Mozilla/5.0 (Windows NT 10.0; Win64; x64) AppleWebKit/537.36 (KHTML, like Gecko) Chrome/125.0.0.0 Safari/537.36" etag="tONsmJGzpIlxVlgo1cvS" version="24.4.13" type="device">
  <diagram name="Страница — 1" id="wPvGGmTlvqKAx4PXOsoj">
    <mxGraphModel dx="1290" dy="530" grid="1" gridSize="10" guides="1" tooltips="1" connect="1" arrows="1" fold="1" page="1" pageScale="1" pageWidth="827" pageHeight="1169" math="0" shadow="0">
      <root>
        <mxCell id="0" />
        <mxCell id="1" parent="0" />
        <mxCell id="2KzKA_OPXGjaPFmhZTIG-1" value="HogwartsStudent" style="swimlane;fontStyle=1;align=center;verticalAlign=top;childLayout=stackLayout;horizontal=1;startSize=26;horizontalStack=0;resizeParent=1;resizeParentMax=0;resizeLast=0;collapsible=1;marginBottom=0;whiteSpace=wrap;html=1;" parent="1" vertex="1">
          <mxGeometry x="30" y="40" width="250" height="280" as="geometry" />
        </mxCell>
        <mxCell id="2KzKA_OPXGjaPFmhZTIG-2" value="- name: str&lt;div&gt;- faculty: str&lt;/div&gt;&lt;div&gt;- mana: int&lt;/div&gt;&lt;div&gt;- spells: list[Spell]&lt;/div&gt;" style="text;strokeColor=none;fillColor=none;align=left;verticalAlign=top;spacingLeft=4;spacingRight=4;overflow=hidden;rotatable=0;points=[[0,0.5],[1,0.5]];portConstraint=eastwest;whiteSpace=wrap;html=1;" parent="2KzKA_OPXGjaPFmhZTIG-1" vertex="1">
          <mxGeometry y="26" width="250" height="74" as="geometry" />
        </mxCell>
        <mxCell id="2KzKA_OPXGjaPFmhZTIG-3" value="" style="line;strokeWidth=1;fillColor=none;align=left;verticalAlign=middle;spacingTop=-1;spacingLeft=3;spacingRight=3;rotatable=0;labelPosition=right;points=[];portConstraint=eastwest;strokeColor=inherit;" parent="2KzKA_OPXGjaPFmhZTIG-1" vertex="1">
          <mxGeometry y="100" width="250" height="8" as="geometry" />
        </mxCell>
        <mxCell id="2KzKA_OPXGjaPFmhZTIG-4" value="+ get_name(): str&lt;div&gt;+ get_faculty(): str&lt;/div&gt;&lt;div&gt;+ get_mana(): int&lt;/div&gt;&lt;div&gt;+ get_spells(): str&lt;/div&gt;&lt;div&gt;+ set_name(): None&lt;div&gt;+ set_house():&amp;nbsp;&lt;span style=&quot;background-color: initial;&quot;&gt;None&lt;/span&gt;&lt;/div&gt;&lt;div&gt;+ set_mana():&amp;nbsp;&lt;span style=&quot;background-color: initial;&quot;&gt;None&lt;/span&gt;&lt;/div&gt;&lt;div&gt;+ learn_spell():&amp;nbsp;&lt;span style=&quot;background-color: initial;&quot;&gt;None&lt;/span&gt;&lt;/div&gt;&lt;/div&gt;&lt;div&gt;&lt;span style=&quot;background-color: initial;&quot;&gt;+ remove_spell(): None&lt;/span&gt;&lt;/div&gt;&lt;div&gt;&lt;span style=&quot;background-color: initial;&quot;&gt;+ cast_spell(target: HogwartsStudent): None&lt;/span&gt;&lt;/div&gt;&lt;div&gt;&lt;span style=&quot;background-color: initial;&quot;&gt;+ __str__(): str&lt;/span&gt;&lt;/div&gt;" style="text;strokeColor=none;fillColor=none;align=left;verticalAlign=top;spacingLeft=4;spacingRight=4;overflow=hidden;rotatable=0;points=[[0,0.5],[1,0.5]];portConstraint=eastwest;whiteSpace=wrap;html=1;" parent="2KzKA_OPXGjaPFmhZTIG-1" vertex="1">
          <mxGeometry y="108" width="250" height="172" as="geometry" />
        </mxCell>
        <mxCell id="2KzKA_OPXGjaPFmhZTIG-5" value="Spell" style="swimlane;fontStyle=1;align=center;verticalAlign=top;childLayout=stackLayout;horizontal=1;startSize=26;horizontalStack=0;resizeParent=1;resizeParentMax=0;resizeLast=0;collapsible=1;marginBottom=0;whiteSpace=wrap;html=1;" parent="1" vertex="1">
          <mxGeometry x="550" y="40" width="250" height="230" as="geometry" />
        </mxCell>
        <mxCell id="2KzKA_OPXGjaPFmhZTIG-6" value="- name: str&lt;div&gt;- description: str&lt;/div&gt;&lt;div&gt;- mana_cost: int&lt;/div&gt;" style="text;strokeColor=none;fillColor=none;align=left;verticalAlign=top;spacingLeft=4;spacingRight=4;overflow=hidden;rotatable=0;points=[[0,0.5],[1,0.5]];portConstraint=eastwest;whiteSpace=wrap;html=1;" parent="2KzKA_OPXGjaPFmhZTIG-5" vertex="1">
          <mxGeometry y="26" width="250" height="64" as="geometry" />
        </mxCell>
        <mxCell id="2KzKA_OPXGjaPFmhZTIG-7" value="" style="line;strokeWidth=1;fillColor=none;align=left;verticalAlign=middle;spacingTop=-1;spacingLeft=3;spacingRight=3;rotatable=0;labelPosition=right;points=[];portConstraint=eastwest;strokeColor=inherit;" parent="2KzKA_OPXGjaPFmhZTIG-5" vertex="1">
          <mxGeometry y="90" width="250" height="8" as="geometry" />
        </mxCell>
        <mxCell id="2KzKA_OPXGjaPFmhZTIG-8" value="+ get_name(): str&lt;div&gt;+ get_description(): str&lt;/div&gt;&lt;div&gt;+ get_mana_cost(): int&lt;/div&gt;&lt;div&gt;+ set_name(): None&lt;div&gt;+ set_description():&amp;nbsp;&lt;span style=&quot;background-color: initial;&quot;&gt;None&lt;/span&gt;&lt;/div&gt;&lt;div&gt;+ set_mana_cost():&amp;nbsp;&lt;span style=&quot;background-color: initial;&quot;&gt;None&lt;/span&gt;&lt;/div&gt;&lt;div&gt;+ cast(target: HogwartsStudent):&amp;nbsp;&lt;span style=&quot;background-color: initial;&quot;&gt;None&lt;/span&gt;&lt;/div&gt;&lt;/div&gt;&lt;div&gt;&lt;span style=&quot;background-color: initial;&quot;&gt;+ __str__(): str&lt;/span&gt;&lt;/div&gt;" style="text;strokeColor=none;fillColor=none;align=left;verticalAlign=top;spacingLeft=4;spacingRight=4;overflow=hidden;rotatable=0;points=[[0,0.5],[1,0.5]];portConstraint=eastwest;whiteSpace=wrap;html=1;" parent="2KzKA_OPXGjaPFmhZTIG-5" vertex="1">
          <mxGeometry y="98" width="250" height="132" as="geometry" />
        </mxCell>
        <mxCell id="2KzKA_OPXGjaPFmhZTIG-9" value="Hogwarts" style="swimlane;fontStyle=1;align=center;verticalAlign=top;childLayout=stackLayout;horizontal=1;startSize=26;horizontalStack=0;resizeParent=1;resizeParentMax=0;resizeLast=0;collapsible=1;marginBottom=0;whiteSpace=wrap;html=1;" parent="1" vertex="1">
          <mxGeometry x="200" y="380" width="450" height="180" as="geometry" />
        </mxCell>
        <mxCell id="2KzKA_OPXGjaPFmhZTIG-10" value="- students: list[HogwartsStudent]&lt;div&gt;- spells: list[Spell]&lt;/div&gt;&lt;div&gt;&lt;br&gt;&lt;/div&gt;" style="text;strokeColor=none;fillColor=none;align=left;verticalAlign=top;spacingLeft=4;spacingRight=4;overflow=hidden;rotatable=0;points=[[0,0.5],[1,0.5]];portConstraint=eastwest;whiteSpace=wrap;html=1;" parent="2KzKA_OPXGjaPFmhZTIG-9" vertex="1">
          <mxGeometry y="26" width="450" height="44" as="geometry" />
        </mxCell>
        <mxCell id="2KzKA_OPXGjaPFmhZTIG-11" value="" style="line;strokeWidth=1;fillColor=none;align=left;verticalAlign=middle;spacingTop=-1;spacingLeft=3;spacingRight=3;rotatable=0;labelPosition=right;points=[];portConstraint=eastwest;strokeColor=inherit;" parent="2KzKA_OPXGjaPFmhZTIG-9" vertex="1">
          <mxGeometry y="70" width="450" height="8" as="geometry" />
        </mxCell>
        <mxCell id="2KzKA_OPXGjaPFmhZTIG-12" value="+ get_studetns(): str&lt;div&gt;+ get_spells(): str&lt;/div&gt;&lt;div&gt;+ enroll_student(student: HogwartsStudent): None&lt;/div&gt;&lt;div&gt;+&amp;nbsp;&lt;span style=&quot;background-color: initial;&quot;&gt;teach_spell(spell: Spell): None&lt;/span&gt;&lt;/div&gt;&lt;div&gt;+ remove_spell(spell: Spell): None&lt;/div&gt;&lt;div&gt;+ simulate_duel(student1: HogwartsStudent, student2: HogwartsStudent): None&lt;br&gt;&lt;br&gt;&lt;/div&gt;" style="text;strokeColor=none;fillColor=none;align=left;verticalAlign=top;spacingLeft=4;spacingRight=4;overflow=hidden;rotatable=0;points=[[0,0.5],[1,0.5]];portConstraint=eastwest;whiteSpace=wrap;html=1;" parent="2KzKA_OPXGjaPFmhZTIG-9" vertex="1">
          <mxGeometry y="78" width="450" height="102" as="geometry" />
        </mxCell>
        <mxCell id="tPw74B2XB1ogecOmr3Ou-1" value="" style="endArrow=open;html=1;endSize=12;startArrow=diamondThin;startSize=14;startFill=0;edgeStyle=orthogonalEdgeStyle;align=left;verticalAlign=bottom;rounded=0;exitX=1;exitY=0.186;exitDx=0;exitDy=0;exitPerimeter=0;entryX=-0.013;entryY=0.321;entryDx=0;entryDy=0;entryPerimeter=0;" edge="1" parent="1" source="2KzKA_OPXGjaPFmhZTIG-4" target="2KzKA_OPXGjaPFmhZTIG-8">
          <mxGeometry x="-1" y="3" relative="1" as="geometry">
            <mxPoint x="330" y="180" as="sourcePoint" />
            <mxPoint x="490" y="180" as="targetPoint" />
          </mxGeometry>
        </mxCell>
        <mxCell id="tPw74B2XB1ogecOmr3Ou-2" value="" style="endArrow=open;html=1;endSize=12;startArrow=diamondThin;startSize=14;startFill=0;edgeStyle=orthogonalEdgeStyle;align=left;verticalAlign=bottom;rounded=0;exitX=0.449;exitY=-0.02;exitDx=0;exitDy=0;exitPerimeter=0;entryX=1.014;entryY=0.77;entryDx=0;entryDy=0;entryPerimeter=0;" edge="1" parent="1" source="2KzKA_OPXGjaPFmhZTIG-9" target="2KzKA_OPXGjaPFmhZTIG-4">
          <mxGeometry x="-1" y="3" relative="1" as="geometry">
            <mxPoint x="320" y="300" as="sourcePoint" />
            <mxPoint x="587" y="300" as="targetPoint" />
          </mxGeometry>
        </mxCell>
        <mxCell id="tPw74B2XB1ogecOmr3Ou-3" value="" style="endArrow=open;html=1;endSize=12;startArrow=diamondThin;startSize=14;startFill=0;edgeStyle=orthogonalEdgeStyle;align=left;verticalAlign=bottom;rounded=0;exitX=0.532;exitY=-0.02;exitDx=0;exitDy=0;exitPerimeter=0;entryX=-0.016;entryY=0.958;entryDx=0;entryDy=0;entryPerimeter=0;" edge="1" parent="1" source="2KzKA_OPXGjaPFmhZTIG-9" target="2KzKA_OPXGjaPFmhZTIG-8">
          <mxGeometry x="-1" y="3" relative="1" as="geometry">
            <mxPoint x="412" y="386" as="sourcePoint" />
            <mxPoint x="294" y="290" as="targetPoint" />
          </mxGeometry>
        </mxCell>
      </root>
    </mxGraphModel>
  </diagram>
</mxfile>
